<?xml version="1.0" encoding="UTF-8"?>
<svg id="Layer_1" data-name="Layer 1" xmlns="http://www.w3.org/2000/svg" viewBox="0 0 583.91 508.24">
  <defs>
    <style>
      .cls-1 {
        fill: #2d2a2a;
        font-family: Poppins-Regular, Poppins;
        font-size: 38.18px;
        letter-spacing: .2em;
      }

      .cls-2 {
        fill: #ffcf8f;
      }

      .cls-2, .cls-3, .cls-4 {
        stroke-width: 0px;
      }

      .cls-3 {
        fill: #b8eff6;
      }

      .cls-5 {
        fill: #d82a2a;
        font-family: FredokaOne-Regular, 'FredokaOne Regular';
        font-size: 207.01px;
        letter-spacing: .14em;
      }

      .cls-4 {
        fill: #fff;
      }

      .cls-6 {
        stroke-miterlimit: 10;
      }

      .cls-6, .cls-7 {
        fill: none;
        stroke: #d82a2a;
        stroke-width: 9.64px;
      }

      .cls-7 {
        stroke-linecap: round;
        stroke-linejoin: round;
      }
    </style>
  </defs>
  <text class="cls-5" transform="translate(0 430.33)"><tspan x="0" y="0">CHEF</tspan></text>
  <text class="cls-1" transform="translate(420.7 486.4)"><tspan x="0" y="0">ALAA</tspan></text>
  <path class="cls-2" d="M329.09,245.05c-6.75.48-13.45,1.65-20.02,3.44-11.2,3.06-22.36,6.77-33.95,7.98-17.92,1.86-42.12-.73-54.52-15.5-12.05-14.36-9.84-43.71,11.7-47.4-11.28-5.28-26.23,3.29-31.9,13.06-8,13.79-3.67,32.1,6.31,43.64,12.04,13.91,32.11,21.01,50.2,20.91,22.05-.13,42.67-10.01,63.7-16.61,19.11-5.99,38.31-6.32,57.97-3.61-11.67-1.61-23.15-4.86-34.91-5.83-4.87-.4-9.74-.42-14.57-.08Z"/>
  <path class="cls-2" d="M207.06,167.38c-3.31-2.44-8.06-2.96-11.63-.91,1.78-1.02,6.02,2.41,7,3.62,5.19,6.41-1.63,12.56-5.97,16.99-2.07,2.11-3.84,4.45-5.38,6.92-.3.53-.66,1.07-.94,1.6-.03.05-.05.1-.08.15-6.38,12.32-6.17,23.59-4.45,31.7.51.77,1.2,1.43,1.79,1.58-2.95-19.01,7.07-28.03,7.07-28.03,0,0,.05-.3,0,0,2.45-2.85,5.2-4.92,7.96-7.23,4.81-4.03,10.07-8.89,9.9-15.7-.1-4.11-1.97-8.24-5.28-10.68Z"/>
  <path class="cls-2" d="M228.39,206.48s-13.32,30.32,20.97,36.56c0,0-24.65-8.5-20.97-36.56Z"/>
  <g>
    <path class="cls-4" d="M380.86,171.18l-13.66,63.02s58.77-4.06,113.54,24.62l13.67-63.02c1.57.47,3.17.9,4.8,1.25,35.57,7.71,70.67-14.87,78.38-50.44,7.66-35.32-14.56-70.13-49.69-78.18-1.02-29.44-21.74-55.58-51.84-62.11-30.1-6.53-59.79,8.68-72.91,35.06-35.31-7.23-69.95,15.25-77.61,50.57-7.71,35.57,14.87,70.67,50.44,78.38,1.63.35,3.26.62,4.89.85Z"/>
    <path class="cls-3" d="M492.68,193.62l5.14-23.71s54.22,16.1,82.93-30.42c0,0-10.81,72.74-88.07,54.13Z"/>
    <path class="cls-3" d="M338.69,103.51c7.66-35.32,42.3-57.8,77.61-50.57,13.12-26.37,42.8-41.58,72.91-35.06,8.27,1.79,15.79,5.11,22.43,9.52-8.98-10.31-21.19-17.95-35.59-21.07-30.1-6.53-59.79,8.68-72.91,35.06-35.31-7.23-69.95,15.25-77.61,50.57-5.92,27.3,6.05,54.27,27.99,68.85-13.23-15.16-19.43-36.12-14.84-57.29Z"/>
    <path class="cls-6" d="M380.86,171.18l-13.66,63.02s58.77-4.06,113.54,24.62l13.67-63.02c1.57.47,3.17.9,4.8,1.25,35.57,7.71,70.67-14.87,78.38-50.44,7.66-35.32-14.56-70.13-49.69-78.18-1.02-29.44-21.74-55.58-51.84-62.11-30.1-6.53-59.79,8.68-72.91,35.06-35.31-7.23-69.95,15.25-77.61,50.57-7.71,35.57,14.87,70.67,50.44,78.38,1.63.35,3.26.62,4.89.85Z"/>
    <path class="cls-3" d="M394.5,174.2l-9.64,44.45s49.73-.39,87.72,19.02c0,0-17.02-21.69-75.07-28.69l-3.01-34.78Z"/>
  </g>
  <line class="cls-7" x1="461" y1="187.01" x2="452.45" y2="224.48"/>
  <line class="cls-7" x1="438.97" y1="180.1" x2="430.42" y2="217.58"/>
  <line class="cls-7" x1="412.67" y1="176.82" x2="404.13" y2="214.29"/>
</svg>